<?xml version="1.0" encoding="iso-8859-1"?>
<!-- Generator: Adobe Illustrator 23.0.2, SVG Export Plug-In . SVG Version: 6.00 Build 0)  -->
<svg version="1.1" id="Layer_1" xmlns="http://www.w3.org/2000/svg" xmlns:xlink="http://www.w3.org/1999/xlink" x="0px" y="0px"
	 width="140px" height="140px" viewBox="0 0 140 140" style="enable-background:new 0 0 140 140;" xml:space="preserve">
<g id="ball" style="fill:#FFFFFF;" transform="translate(-8 -5.684)">
	<path id="Path_61" d="M75.374,33.191c-21.626,0-39.158,17.532-39.158,39.158s17.532,39.158,39.158,39.158
		s39.158-17.532,39.158-39.158C114.509,50.732,96.991,33.214,75.374,33.191z M75.374,37.291c5.27-0.006,10.473,1.183,15.217,3.477
		c-0.047,0.265-0.041,0.537,0.018,0.8c2.445,10.923-1.926,23.543-11.409,32.929C68.887,84.716,54.806,88.881,43.325,85.105
		c-0.207-0.065-0.422-0.096-0.639-0.093c-7.002-18.043,1.949-38.345,19.991-45.347C66.726,38.094,71.031,37.289,75.374,37.291z
		 M52.102,90.564c10.422,0,21.42-4.676,29.98-13.157c9.718-9.621,14.539-22.431,12.99-34.049c2.666,1.819,5.069,3.995,7.144,6.467
		c0.007,0.043,0.006,0.085,0.017,0.128c2.862,12.438-1.47,25.333-11.882,35.366c-11.235,10.835-27.242,15.04-40.8,10.719
		c-1.752-1.911-3.288-4.009-4.58-6.257C47.312,90.302,49.703,90.564,52.102,90.564z M110.437,72.349
		c0.011,19.353-15.669,35.051-35.022,35.062c-6.906,0.004-13.659-2.033-19.411-5.854c1.494,0.163,2.997,0.244,4.5,0.245
		c12.229-0.152,23.931-4.997,32.688-13.534c9.115-8.784,13.968-19.616,13.986-30.657C109.328,62.227,110.44,67.257,110.437,72.349z"
		/>
</g>
</svg>
