<?xml version="1.0" encoding="iso-8859-1"?>
<!-- Generator: Adobe Illustrator 23.0.2, SVG Export Plug-In . SVG Version: 6.00 Build 0)  -->
<svg version="1.1" id="Layer_1" xmlns="http://www.w3.org/2000/svg" xmlns:xlink="http://www.w3.org/1999/xlink" x="0px" y="0px"
	 width="140px" height="140px" viewBox="0 0 140 140" style="enable-background:new 0 0 140 140;" xml:space="preserve">
<g id="catch" transform="translate(-14.4 -16.4)">
	<g id="Group_33" style="fill:#FFFFFF;" transform="translate(14.4 16.4)">
		<path id="Path_57" d="M115.787,56.4l-10.936-9.458c-2.069-1.478-3.1-2.069-4.581-2.069h-6.06
			c-2.217,0-5.468,0.148-7.241,1.33L72.487,56.696c-3.547,2.66-0.443,7.094,3.4,4.581l12.266-8.128c0,0-3.251,10.2-3.251,16.4
			c0,3.695-0.591,10.2-5.025,10.2H70.71c-1.714,0-3.104,1.389-3.104,3.103c0,1.714,1.389,3.104,3.104,3.104l0,0h11.235
			c8.128,0,10.2-12.266,10.2-12.266l11.081,26.454c0.553,1.337,1.809,2.251,3.251,2.365c1.666,0.117,3.111-1.139,3.228-2.805
			c0.036-0.509-0.058-1.018-0.272-1.481l-9.015-23.65c0.002-0.08-0.062-0.146-0.142-0.148c-0.002,0-0.004,0-0.006,0l-2.217-5.764
			l5.468-15.074l0,0l9.015,8.128C116.083,63.494,119.334,59.06,115.787,56.4z"/>
		<path id="Path_58" style="fill:#FFFFFF;" d="M33.917,56.995c3.756,0,6.8-3.044,6.8-6.8c0-3.756-3.044-6.8-6.8-6.8
			s-6.8,3.044-6.8,6.8c-0.011,3.744,3.015,6.789,6.76,6.8C33.891,56.995,33.904,56.995,33.917,56.995z"/>
		<path id="Path_59" style="fill:#FFFFFF;" d="M101.452,42.804c3.999,0,7.241-3.242,7.241-7.241s-3.242-7.241-7.241-7.241
			c-3.999,0-7.24,3.241-7.241,7.24c-0.046,3.954,3.123,7.196,7.077,7.242C101.343,42.805,101.398,42.805,101.452,42.804z"/>
		<path id="Path_60" style="fill:#FFFFFF;" d="M30.812,58.912c-2.069,0-2.956,1.034-4.138,2.069L17.955,69.7
			c-1.022,0.885-1.57,2.198-1.478,3.547c0,2.069,3.1,2.956,4.877,1.33l9.31-9.31l3.695,12.857l-1.33,3.4v0.148l-6.207,16.255
			c-1.773,4.581,4.729,5.911,6.207,2.069l6.207-16.4c0,0,2.069,4.138,6.207,4.138h12.265c4.138,0,4.138-6.207,0-6.207h-10.2
			c-2.069,0-2.66-4.138-2.66-6.207c0-5.025-1.773-8.719-3.547-13.3c-0.719-1.831-2.466-3.053-4.433-3.1L30.812,58.912z"/>
	</g>
</g>
</svg>
