<?xml version="1.0" encoding="iso-8859-1"?>
<!-- Generator: Adobe Illustrator 23.0.2, SVG Export Plug-In . SVG Version: 6.00 Build 0)  -->
<svg version="1.1" id="Layer_1" xmlns="http://www.w3.org/2000/svg" xmlns:xlink="http://www.w3.org/1999/xlink" x="0px" y="0px"
	 width="140px" height="140px" viewBox="0 0 140 140" style="enable-background:new 0 0 140 140;" xml:space="preserve">
<g id="catch" transform="translate(-14.4 -16.4)">
	<g id="Group_33" transform="translate(14.4 16.4)">
		<path id="Path_57" d="M116.277,55.821l-10.936-9.458c-2.069-1.478-3.1-2.069-4.581-2.069H94.7c-2.217,0-5.468,0.148-7.241,1.33
			L72.977,56.117c-3.547,2.66-0.443,7.094,3.4,4.581l12.266-8.128c0,0-3.251,10.2-3.251,16.4c0,3.695-0.591,10.2-5.025,10.2H71.2
			c-1.714,0-3.104,1.389-3.104,3.103c0,1.714,1.389,3.104,3.104,3.104l0,0h11.235c8.128,0,10.2-12.266,10.2-12.266l11.081,26.454
			c0.553,1.337,1.809,2.251,3.251,2.365c1.666,0.117,3.111-1.139,3.228-2.805c0.036-0.509-0.058-1.018-0.272-1.481l-9.015-23.65
			c0.002-0.08-0.062-0.146-0.142-0.148c-0.002,0-0.004,0-0.006,0l-2.217-5.764l5.468-15.074l0,0l9.015,8.128
			C116.573,62.915,119.824,58.481,116.277,55.821z"/>
		<path id="Path_58" d="M34.407,56.416c3.756,0,6.8-3.044,6.8-6.8c0-3.756-3.044-6.8-6.8-6.8c-3.756,0-6.8,3.044-6.8,6.8
			c-0.011,3.744,3.015,6.789,6.76,6.8C34.38,56.416,34.393,56.416,34.407,56.416z"/>
		<path id="Path_59" d="M101.942,42.225c3.999,0,7.241-3.242,7.241-7.241s-3.242-7.241-7.241-7.241c-3.999,0-7.24,3.241-7.241,7.24
			c-0.046,3.954,3.123,7.196,7.077,7.242C101.832,42.225,101.887,42.225,101.942,42.225z"/>
		<path id="Path_60" d="M31.302,58.333c-2.069,0-2.956,1.034-4.138,2.069l-8.719,8.719c-1.022,0.885-1.57,2.198-1.478,3.547
			c0,2.069,3.1,2.956,4.877,1.33l9.31-9.31l3.695,12.857l-1.33,3.4v0.148l-6.207,16.255c-1.773,4.581,4.729,5.911,6.207,2.069
			l6.207-16.4c0,0,2.069,4.138,6.207,4.138h12.265c4.138,0,4.138-6.207,0-6.207h-10.2c-2.069,0-2.66-4.138-2.66-6.207
			c0-5.025-1.773-8.719-3.547-13.3c-0.719-1.831-2.466-3.053-4.433-3.1L31.302,58.333z"/>
	</g>
</g>
</svg>
