<?xml version="1.0" encoding="iso-8859-1"?>
<!-- Generator: Adobe Illustrator 23.0.2, SVG Export Plug-In . SVG Version: 6.00 Build 0)  -->
<svg version="1.1" id="Layer_1" xmlns="http://www.w3.org/2000/svg" xmlns:xlink="http://www.w3.org/1999/xlink" x="0px" y="0px"
	 width="140px" height="140px" viewBox="0 0 140 140" style="enable-background:new 0 0 140 140;" xml:space="preserve">
<g id="fish" transform="translate(0 0.001)">
	<g id="Group_31" transform="translate(0 -0.001)">
		<circle id="Ellipse_2" style="fill:#FFFFFF;" cx="39.186" cy="64.696" r="3.711"/>
		<path id="Path_56" style="fill:#FFFFFF;" d="M116.845,50.635c-1.438-0.358-2.933,0.317-3.615,1.632l-5.158,9.5
			c-0.008,0.014-0.01,0.028-0.017,0.042l-1.953,3.579c-2.963-4.501-6.585-8.532-10.745-11.957
			c-4.024-3.233-8.509-5.845-13.306-7.751c-2.206-0.872-4.469-1.593-6.772-2.16c0.785-4.347-0.556-9.1-1.922-12.5
			c-0.586-1.485-1.877-2.579-3.439-2.913c-1.577-0.337-3.217,0.137-4.373,1.261c-6.6,6.384-17.415,13.244-24.442,17.4
			c-2.35,1.135-4.619,2.431-6.789,3.88c-0.022,0.011-0.043,0.022-0.063,0.035v0.009c-5.413,3.738-10.438,8.01-15,12.75
			c-2.964,2.986-3.148,7.745-0.423,10.951c4.524,5.137,9.731,9.63,15.474,13.355v0.009c0,0,0.026,0.018,0.044,0.026
			c1.969,1.275,4.006,2.443,6.1,3.5c6.975,4.135,18.261,11.278,25.095,17.882c1.896,1.853,4.935,1.819,6.788-0.077
			c0.442-0.452,0.79-0.986,1.024-1.572c1.358-3.386,2.672-8.094,1.931-12.415c9.585-2.813,18.79-8.9,27.511-18.235l0.009,0.009
			c1.394-1.387,2.652-2.904,3.756-4.532c2.337,3.43,5.017,7.363,6.913,10.131c0.839,1.244,2.456,1.696,3.818,1.067
			c1.123-0.543,1.829-1.689,1.808-2.936V53.601C119.114,52.213,118.186,50.992,116.845,50.635z M67.996,31.901
			c0.311-0.306,0.755-0.435,1.182-0.344c0.414,0.091,0.754,0.382,0.908,0.777c1.181,2.925,2.336,6.967,1.737,10.467
			c-5.78-1.023-11.69-1.067-17.485-0.132l-0.132,0.026C59.09,39.48,63.703,35.87,67.996,31.901z M70.086,106.201
			c-0.151,0.398-0.499,0.689-0.917,0.768c-0.422,0.092-0.863-0.034-1.173-0.335c-4.148-3.845-8.6-7.348-13.314-10.473
			c2.675,0.501,5.39,0.755,8.112,0.758h0.053c3.029-0.004,6.049-0.323,9.012-0.952c0.511,3.448-0.626,7.371-1.772,10.236
			L70.086,106.201z M101.741,72.838c-1.381,1.599-2.845,3.123-4.386,4.568c-1.477,1.437-3.009,2.82-4.6,4.132
			c-2.926,2.437-6.079,4.587-9.415,6.421c-3.066,1.68-6.314,3.006-9.68,3.952c-4.195,1.156-8.547,1.638-12.893,1.428
			c-2.414-0.129-4.813-0.463-7.171-1c5.185-6.231,8.197-13.982,8.579-22.079c0.048-0.978-0.707-1.81-1.685-1.859h-0.077
			c-0.936-0.001-1.708,0.732-1.755,1.667c-0.404,7.897-3.543,15.408-8.879,21.243c-2.959-0.941-5.829-2.142-8.577-3.589
			c-1.508-0.882-2.778-1.6-3.695-2.1c-5.969-3.702-11.36-8.263-16-13.535c-1.528-1.806-1.417-4.482,0.256-6.155
			c4.363-4.546,9.166-8.648,14.339-12.246c2.113-1.422,4.33-2.683,6.631-3.774c3.857-1.827,7.954-3.095,12.169-3.765
			c8.714-1.408,17.646-0.436,25.853,2.813c4.468,1.773,8.645,4.207,12.389,7.222c3.913,3.221,7.314,7.018,10.087,11.26
			c0.362,0.529,0.767,1.129,1.208,1.772c-0.826,1.261-1.728,2.471-2.7,3.624H101.741z M108.329,68.663l7.246-13.245v23.875
			C113.416,76.132,110.586,71.98,108.329,68.663z"/>
	</g>
</g>
</svg>
