<?xml version="1.0" encoding="iso-8859-1"?>
<!-- Generator: Adobe Illustrator 23.0.2, SVG Export Plug-In . SVG Version: 6.00 Build 0)  -->
<svg version="1.1" id="Layer_1" xmlns="http://www.w3.org/2000/svg" xmlns:xlink="http://www.w3.org/1999/xlink" x="0px" y="0px"
	 width="140px" height="140px" viewBox="0 0 140 140" style="enable-background:new 0 0 140 140;" xml:space="preserve">
<g id="hide" transform="translate(-2.5 -30.949)">
	<g id="Group_36" transform="translate(2.5 30.949)">
		<circle id="Ellipse_3" style="fill:#FFFFFF;" cx="62.929" cy="70.969" r="3.765"/>
		<circle id="Ellipse_4" style="fill:#FFFFFF;" cx="78.525" cy="70.969" r="3.765"/>
		<path id="Path_65" style="fill:#FFFFFF;" d="M132.441,81.859h-4.84v-1.613c-0.017-2.368-1.932-4.283-4.3-4.3
			c-0.973,0.024-1.913,0.353-2.689,0.941c-0.765-0.608-1.712-0.94-2.689-0.941c-0.973,0.024-1.913,0.353-2.689,0.941
			c-0.765-0.608-1.712-0.94-2.689-0.941c-0.973,0.024-1.913,0.353-2.689,0.941c-1.856-1.486-4.565-1.185-6.051,0.671
			c-0.611,0.763-0.943,1.711-0.944,2.688v1.613h-9.412c0.134-0.4,0.134-0.672,0.269-1.076c3.63-0.807,5.378-3.361,5.378-7.8
			c0-3.361-0.807-5.782-2.42-7.261c-0.939-0.83-2.114-1.347-3.361-1.479c0.097-2.961,0.007-5.925-0.269-8.874
			c-0.104-1.637-0.375-3.258-0.807-4.84c0.595-2.646,0.731-5.375,0.4-8.067c-0.217-0.831-1.067-1.329-1.899-1.112
			c-0.04,0.01-0.079,0.022-0.118,0.036c-0.538,0.134-0.941,0.4-1.479,0.538c0.134-0.756,0.134-1.53,0-2.286
			c-0.137-0.84-0.93-1.409-1.77-1.272c-0.084,0.014-0.167,0.034-0.247,0.062c-5.387,1.946-11.08,2.903-16.807,2.824
			c-11.966,0-21.782,0.538-22.723,14.118c-0.269,3.63-0.269,6.454-0.269,8.874c-1.262,0.071-2.456,0.597-3.361,1.479
			c-1.613,1.479-2.42,3.899-2.42,7.261c0,4.437,1.748,6.992,5.378,7.8c0.026,0.372,0.117,0.736,0.269,1.076H37.92v-1.614
			c-0.017-2.368-1.932-4.283-4.3-4.3c-0.973,0.024-1.913,0.353-2.689,0.941c-0.765-0.608-1.712-0.94-2.689-0.941
			c-0.973,0.024-1.913,0.353-2.689,0.941c-0.765-0.61-1.714-0.942-2.692-0.944c-0.973,0.024-1.913,0.353-2.689,0.941
			c-1.858-1.484-4.566-1.181-6.05,0.676c-0.609,0.762-0.941,1.709-0.942,2.685v1.613H9.012c-1.187,0.036-2.121,1.028-2.084,2.216
			c0.035,1.137,0.948,2.05,2.084,2.084h6.185c0.782,0.685,1.784,1.067,2.824,1.076c0.709,0.013,1.408-0.174,2.017-0.538
			c0.833,1.001,2.059,1.591,3.361,1.617c0.709,0.013,1.408-0.174,2.017-0.538c1.302,1.857,3.863,2.306,5.719,1.004
			c0.39-0.274,0.73-0.613,1.004-1.004c0.62,0.337,1.312,0.521,2.017,0.538c1.509-0.01,2.897-0.832,3.63-2.151h66.016
			c0.749,1.37,2.205,2.201,3.765,2.151c0.709,0.013,1.408-0.174,2.017-0.538c1.302,1.857,3.863,2.306,5.719,1.004
			c0.39-0.274,0.73-0.613,1.004-1.004c1.813,1.016,4.095,0.559,5.378-1.076c0.62,0.337,1.312,0.521,2.017,0.538
			c1.04-0.009,2.042-0.391,2.824-1.076h6.185c1.173,0.014,2.136-0.925,2.15-2.098c0-0.017,0-0.034,0-0.05
			C134.665,82.813,133.655,81.914,132.441,81.859z M123.433,79.17c0.577,0.039,1.037,0.499,1.076,1.076v2.689
			c0.018,0.594-0.449,1.09-1.043,1.108c-0.594,0.018-1.09-0.449-1.108-1.043c-0.001-0.022-0.001-0.044,0-0.066v-2.689
			C122.397,79.669,122.855,79.21,123.433,79.17L123.433,79.17z M51.361,79.17c-0.134-1.277-1.143-2.286-2.42-2.42
			c-1.613-0.134-2.689-0.269-2.689-3.765c0-2.824,0.672-3.765,1.076-4.034c0.322-0.309,0.767-0.456,1.21-0.4
			c0.134,1.345,0.269,2.555,0.4,3.227c0.4,1.479,4.034,1.345,4.3,0.134c0.269-1.076-0.672-8.2,2.689-14.521
			c3.5,1.479,8.739,2.42,14.79,2.42s11.294-0.941,14.79-2.42c3.371,6.322,2.564,13.443,2.699,14.522c0.269,1.21,3.9,1.345,4.3-0.134
			c0.134-0.672,0.269-1.882,0.4-3.227c0.443-0.056,0.888,0.091,1.21,0.4c0.4,0.4,1.076,1.345,1.076,4.034
			c0,3.5-1.076,3.63-2.689,3.765c-1.299,0.087-2.333,1.121-2.42,2.42c-0.114,0.908-0.294,1.807-0.538,2.689H51.903
			C51.769,81.053,51.5,80.113,51.361,79.17z M16.941,80.246c0.039-0.577,0.499-1.037,1.076-1.076
			c0.577,0.039,1.037,0.499,1.076,1.076v2.689c-0.038,0.577-0.496,1.037-1.072,1.078c-0.585,0.009-1.067-0.458-1.076-1.044
			c0-0.011,0-0.021,0-0.032L16.941,80.246z M23.395,85.221c-0.577-0.039-1.037-0.499-1.076-1.076V80.38
			c-0.018-0.594,0.449-1.09,1.043-1.108c0.594-0.018,1.09,0.449,1.108,1.043c0.001,0.022,0.001,0.044,0,0.066v3.765
			c-0.039,0.575-0.496,1.034-1.071,1.076H23.395z M29.714,85.221c-0.018,0.594-0.514,1.061-1.108,1.043
			c-0.569-0.017-1.025-0.474-1.043-1.043v-4.84c0.018-0.594,0.514-1.061,1.108-1.043c0.569,0.017,1.025,0.474,1.043,1.043
			L29.714,85.221z M35.092,84.145c0.018,0.594-0.449,1.09-1.043,1.108c-0.594,0.018-1.09-0.449-1.108-1.043
			c-0.001-0.022-0.001-0.044,0-0.066V80.38c0.018-0.594,0.514-1.061,1.108-1.043c0.569,0.017,1.025,0.474,1.043,1.043V84.145z
			 M107.428,85.221c-0.574-0.043-1.028-0.502-1.067-1.076V80.38c-0.018-0.594,0.449-1.09,1.043-1.108
			c0.594-0.018,1.09,0.449,1.108,1.043c0.001,0.022,0.001,0.044,0,0.066v3.765c0.009,0.585-0.458,1.067-1.044,1.076
			c-0.012,0-0.024,0-0.036,0H107.428z M113.882,85.221c-0.018,0.594-0.514,1.061-1.108,1.043c-0.569-0.017-1.025-0.474-1.043-1.043
			v-4.84c0.018-0.594,0.514-1.061,1.108-1.043c0.569,0.017,1.025,0.474,1.043,1.043V85.221z M119.126,84.145
			c0.018,0.594-0.449,1.09-1.043,1.108c-0.594,0.018-1.09-0.449-1.108-1.043c-0.001-0.022-0.001-0.044,0-0.066V80.38
			c-0.018-0.594,0.449-1.09,1.043-1.108c0.594-0.018,1.09,0.449,1.108,1.043c0.001,0.022,0.001,0.044,0,0.066V84.145z"/>
	</g>
</g>
</svg>
