<?xml version="1.0" encoding="iso-8859-1"?>
<!-- Generator: Adobe Illustrator 23.0.2, SVG Export Plug-In . SVG Version: 6.00 Build 0)  -->
<svg version="1.1" id="Layer_1" xmlns="http://www.w3.org/2000/svg" xmlns:xlink="http://www.w3.org/1999/xlink" x="0px" y="0px"
	 width="318.915px" height="228.912px" viewBox="0 0 318.915 228.912" style="enable-background:new 0 0 318.915 228.912;"
	 xml:space="preserve">
<g style="fill:#FFFFFF;">
	<path d="M118.156,124.739l1.072,1.7l-0.001,0.005c2.386-1.502,4.643-3.073,6.711-4.667l-1.228-1.593
		C122.694,121.739,120.488,123.272,118.156,124.739z"/>
	<path d="M131.333,71.632l-0.178,2c2.574,0.184,5.092,0.838,7.431,1.929l0.881-1.804C136.908,72.559,134.151,71.839,131.333,71.632z
		"/>
	<path d="M130.722,114.978l1.406,1.44v0.005c1.956-1.907,3.778-3.945,5.454-6.102l-1.591-1.232
		C134.372,111.171,132.611,113.139,130.722,114.978z"/>
	<path d="M131.332,100.528c-2.642,0.081-5.287-0.046-7.909-0.379l-0.268,1.994c2.208,0.286,4.433,0.425,6.659,0.416v-0.003
		c0.518-0.001,1.04-0.007,1.567-0.017L131.332,100.528z"/>
	<path d="M109.871,93.678l-1.575,1.252c1.818,2.22,4.153,3.961,6.8,5.069l0.81-1.843C113.558,97.18,111.486,95.642,109.871,93.678z"
		/>
	<path d="M104.011,132.291l0.841,1.827v0.006c2.573-1.183,5.031-2.396,7.307-3.608l-0.943-1.778
		C108.974,129.928,106.55,131.123,104.011,132.291z"/>
	<path d="M170.401,92.022l0.673,1.9v-0.007c2.517-0.893,5.077-1.855,7.61-2.856l-0.742-1.87
		C175.433,90.184,172.895,91.137,170.401,92.022z"/>
	<path d="M185.376,86.093l0.807,1.843v-0.007c2.496-1.092,4.981-2.234,7.387-3.384l-0.872-1.813
		C190.313,83.879,187.85,85.01,185.376,86.093z"/>
	<g>
		<path d="M318.915,0l-3.792,1.925l-0.772-0.203l-108.09,15.272l19.716,15.923l3.257,24.543l0.099,0.748l-0.081,0.15l-0.939-0.55
			c-0.66,1.091-1.425,2.115-2.284,3.058l1.5,1.338c0.734-0.807,1.386-1.683,1.99-2.59l0.044,0.336l0.626-0.395l0.076,0.576
			l0.515-0.949l15.966-10.104c11.873,9.508,12.276,9.641,12.609,9.752l0.898,0.293l57.085-56.619l-0.751-0.197L318.915,0z
			 M213.705,19.055l83.99-11.871l-69.961,23.201L213.705,19.055z M229.113,33.169l66.235-21.964l-55.669,28.25l-0.669-0.534
			l-0.645,1.202l-1.695,0.859l0.858,0.689l-5.853,10.805L229.113,33.169z M234.937,52.915l5.026-9.281
			c1.177,0.948,2.646,2.13,4.244,3.413L234.937,52.915z M259.665,55.368c-1.757-1.334-5.802-4.531-11.485-9.081l-5.868-4.717
			l64.029-32.489L259.665,55.368z"/>
		<path d="M206.921,75.19c-2.231,1.315-4.594,2.626-7.031,3.915l0.94,1.779l-0.001-0.006c2.462-1.303,4.856-2.635,7.111-3.953
			L206.921,75.19z"/>
		<path d="M220.216,66.236c-1.901,1.52-4.081,3.1-6.481,4.7l1.117,1.674l-0.001-0.007c2.446-1.63,4.674-3.245,6.621-4.794
			L220.216,66.236z"/>
	</g>
	<path d="M89.115,138.436l0.708,1.882l-0.001,0.004c2.716-1.02,5.191-1.99,7.566-2.967l-0.763-1.863
		C94.269,136.46,91.815,137.422,89.115,138.436z"/>
	<path d="M155.028,96.774l0.507,1.948v-0.004c2.543-0.662,5.176-1.415,7.828-2.232l-0.6-1.922
		C160.143,95.374,157.541,96.12,155.028,96.774z"/>
	<path d="M144.322,99.127c0.486-1.062,0.915-2.095,1.287-3.1l-1.887-0.7c-0.534,1.43-1.14,2.831-1.815,4.2
		c-0.888,0.137-1.759,0.259-2.614,0.368l0.253,2c0.405-0.05,0.812-0.105,1.223-0.163c-0.138,0.254-0.279,0.509-0.423,0.765
		l1.755,0.986c0.402-0.719,0.783-1.429,1.143-2.128c1.423-0.237,2.879-0.5,4.356-0.8l-0.4-1.972
		C146.231,98.778,145.269,98.96,144.322,99.127z"/>
	<path d="M58.598,149.197l0.681,1.9l-0.001,0.004c2.525-0.903,5.067-1.803,7.628-2.698l-0.66-1.9
		C63.675,147.391,61.126,148.289,58.598,149.197z"/>
	<path d="M4.227,192.879l-1.919-0.606c-0.818,2.612-1.416,5.288-1.786,8l1.993,0.276C2.87,197.949,3.443,195.384,4.227,192.879z"/>
	<path d="M2.011,208.452L0,208.462c0.02,2.734,0.195,5.464,0.524,8.178l1.997-0.239C2.201,213.763,2.031,211.109,2.011,208.452z"/>
	<path d="M106.977,86.844c-0.028-0.257-0.042-0.515-0.042-0.774c0.064-2.171,0.977-4.23,2.541-5.737l-1.464-1.38
		c-1.922,1.876-3.031,4.432-3.088,7.118c0,0.33,0.018,0.66,0.053,0.988L106.977,86.844z"/>
	<path d="M145.458,87.772l2.008,0.123l-0.001-0.007c0.025-0.407,0.038-0.803,0.037-1.189c0.046-2.496-0.547-4.963-1.724-7.165
		l-1.761,0.974c1.011,1.904,1.519,4.035,1.474,6.191C145.492,87.049,145.481,87.407,145.458,87.772z"/>
	<path d="M115.83,76.103c2.407-1.023,4.931-1.746,7.515-2.152l-0.321-1.986c-2.749,0.436-5.434,1.209-7.994,2.3l0.8,1.845
		L115.83,76.103z"/>
	<path d="M73.901,143.868l0.657,1.9l-0.001,0.003c2.556-0.88,5.108-1.77,7.655-2.671l-0.674-1.9
		C78.995,142.098,76.45,142.987,73.901,143.868z"/>
	<path d="M15.583,171.83l1.364,1.481l0.001,0.005c1.952-1.792,4.014-3.462,6.173-4.998l-1.169-1.638
		C19.724,168.263,17.597,169.983,15.583,171.83z"/>
	<path d="M28.832,162.269l1.007,1.742l0.001,0.004c2.183-1.265,4.566-2.532,7.081-3.759l-0.883-1.807
		C33.481,159.697,31.057,160.982,28.832,162.269z"/>
	<path d="M43.45,155.077l0.789,1.85l-0.001,0.004c2.327-0.993,4.771-1.98,7.472-3.024l-0.723-1.878
		C48.264,153.077,45.799,154.077,43.45,155.077z"/>
	<path d="M5.484,184.702l1.776,0.947l0.001,0.004c1.237-2.312,2.679-4.509,4.308-6.563l-1.578-1.25
		C8.287,179.989,6.779,182.285,5.484,184.702z"/>
	<path d="M1.929,224.958c0.273,1.27,0.586,2.601,0.93,3.954l1.951-0.496c-0.338-1.328-0.646-2.635-0.914-3.881L1.929,224.958z"/>
</g>
</svg>
