<?xml version="1.0" encoding="iso-8859-1"?>
<!-- Generator: Adobe Illustrator 23.0.2, SVG Export Plug-In . SVG Version: 6.00 Build 0)  -->
<svg version="1.1" id="Layer_1" xmlns="http://www.w3.org/2000/svg" xmlns:xlink="http://www.w3.org/1999/xlink" x="0px" y="0px"
	 width="140px" height="140px" viewBox="0 0 140 140" style="enable-background:new 0 0 140 140;" xml:space="preserve">
<g>
	<path style="fill:#FFFFFF;" d="M128.861,45.238l8.686-3.587c0.771-0.323,1.139-1.207,0.823-1.981
		c-0.466-0.983-1.314-1.731-2.347-2.072c-2.896-1.204-8.423-1.311-14.523,1.158h-0.183c-0.709,0.291-1.361,0.654-1.957,1.066
		c-0.177-1.027-0.527-2.063-1.06-3.06c-0.02-0.048-0.045-0.094-0.076-0.137c-3.079-5.764-7.421-9.264-10.473-10.195
		c-1.014-0.379-2.138-0.341-3.124,0.107c-0.739,0.397-1.018,1.316-0.625,2.057l4.405,8.321c-2.748-0.582-5.579-0.707-8.377-0.354
		c-3.357,0.502-5.582,1.767-6.1,3.474v0.008c0,0.001,0,0.002-0.001,0.002c-0.241,0.807,0.218,1.657,1.025,1.898l7.654,2.314
		c-5.614,3.144-9.449,7.87-8.295,10.792c0.145,0.381,0.436,0.688,0.808,0.853c0.194,0.078,0.401,0.12,0.61,0.122
		c0.198-0.023,0.39-0.085,0.564-0.183l15.243-5.952C99.326,61.863,95.208,78.76,93.799,89.064c-2.478,0.248-5.046,0.754-7.699,1.613
		c-2.171,0.702-4.277,1.371-6.352,2.025c-3.115-1.764-17.321-8.478-39.83,0.098c-0.319-0.064-0.637-0.12-0.954-0.174
		c-0.907-7.461-3.965-22.261-14.113-32.826l11.646,4.575c0.174,0.072,0.361,0.108,0.549,0.107c0.208,0.008,0.415-0.024,0.611-0.095
		c0.372-0.165,0.663-0.472,0.808-0.853c0.95-2.397-1.985-6.254-6.449-8.928l5.748-1.741h0.008c0.804-0.245,1.258-1.096,1.013-1.9
		c-0.838-2.728-6.058-3.889-11.701-2.845l3.379-6.37c0.393-0.741,0.114-1.66-0.625-2.057c-0.876-0.417-1.884-0.455-2.789-0.107
		c-2.514,0.774-6.202,3.7-8.762,8.5l-0.091,0.137c-0.383,0.725-0.649,1.474-0.813,2.221c-0.412-0.261-0.853-0.497-1.322-0.698
		h-0.137c-5.044-2.072-9.753-1.981-12.191-0.96c-0.921,0.305-1.679,0.97-2.1,1.844l-0.006,0.014
		c-0.314,0.781,0.064,1.668,0.844,1.983l6.618,2.766c-4.937,2.78-8.2,6.968-7.092,9.607c0.155,0.372,0.451,0.668,0.823,0.823
		c0.184,0.073,0.381,0.11,0.579,0.107c0.205,0.003,0.407-0.038,0.594-0.122l5.445-2.282c-1.726,4.89-1.544,9.73,0.741,10.966
		c0.228,0.13,0.485,0.199,0.747,0.2c0.14,0.027,0.284,0.032,0.426,0.015c0.384-0.116,0.708-0.379,0.9-0.731l7.455-13.557
		c2.562,4.662,7.494,15.628,8.342,32.035C14.735,94.277,5.54,102.81,5.411,102.928c-0.297,0.286-0.466,0.681-0.467,1.093
		c-0.003,0.842,0.677,1.526,1.519,1.529c0.374-0.009,0.732-0.156,1.005-0.412c0.147-0.147,13.121-12.198,30.265-9.637l0.014,0.007
		c0.005-0.001,0.01-0.003,0.016-0.003c2.472,0.372,5.031,1.046,7.65,2.105c2.652,1.035,5.167,2.026,7.619,3.003
		c-32.12,8.83-46.503,10.056-46.692,10.056c-0.842,0.034-1.497,0.743-1.463,1.585s0.743,1.497,1.585,1.463l0.102-0.016
		c0.785-0.061,16.249-1.346,51.36-11.272c0.244-0.01,0.479-0.075,0.687-0.193c8.353-2.371,17.798-5.225,28.414-8.664
		c2.839-0.917,5.576-1.402,8.197-1.57C95.261,92,95.301,92,95.34,91.995c16.998-1.03,28.873,11.643,29.005,11.801
		c0.568,0.623,1.533,0.667,2.156,0.099c0.623-0.568,0.667-1.533,0.099-2.156c-0.111-0.123-8.03-8.616-20.351-11.731
		c1.081-20.593,7.458-34.116,10.46-39.419l9.363,17c0.195,0.356,0.524,0.619,0.914,0.731c0.141,0.023,0.286,0.023,0.427,0
		c0.259-0.002,0.513-0.075,0.734-0.211c2.744-1.507,2.814-7.553,0.498-13.58l7.301,3.065c0.184,0.073,0.381,0.11,0.579,0.107
		c0.594-0.019,1.123-0.382,1.354-0.93C139.163,53.635,134.963,48.489,128.861,45.238z M34.212,60.23l-9.001-3.564l2.582-0.782
		C30.236,56.824,32.432,58.31,34.212,60.23z M30.92,50.782c0.833,0,1.664,0.071,2.484,0.213l-11.205,3.407
		c0.014-0.043,0.032-0.084,0.047-0.126c0.489-1.06,1.351-1.897,2.427-2.35c0.011-0.003,0.02-0.009,0.03-0.012
		c0.008-0.003,0.013-0.01,0.021-0.014c0.024-0.01,0.045-0.026,0.069-0.035l0.61-0.229C27.191,51.086,29.049,50.799,30.92,50.782
		L30.92,50.782z M20.848,49.745c0.035-0.055,0.061-0.115,0.077-0.178c1.224-2.412,2.999-4.501,5.181-6.1l-3.124,5.882
		c-0.077,0.04-0.148,0.089-0.224,0.131c-0.982,0.497-1.799,1.213-2.421,2.074c-0.021,0.028-0.047,0.052-0.068,0.081
		C20.339,50.974,20.535,50.332,20.848,49.745z M14.787,52.641h0.122c0.587,0.242,1.121,0.591,1.587,1.021
		c-1.059-0.266-2.18-0.27-3.282,0.015c-0.06,0.012-0.12,0.017-0.18,0.031l-6.1-2.545C9.631,51.046,12.318,51.551,14.787,52.641z
		 M12.696,56.999c0.2-0.088,0.406-0.158,0.616-0.215c0.026-0.008,0.054-0.005,0.08-0.014c0.029-0.012,0.06-0.016,0.089-0.027
		c0.456-0.117,0.923-0.185,1.394-0.186c0.27-0.014,0.538,0.009,0.803,0.051c0.381,0.09,0.743,0.239,1.081,0.442L6.063,61.57
		C7.885,59.548,10.157,57.982,12.696,56.999z M11.35,69.297c0.135-2.621,0.87-5.176,2.149-7.467l2.56-1.067L11.35,69.297z
		 M31.093,92.163c-0.396-9.354-2.346-18.579-5.811-27.285c7.228,9.262,9.75,20.834,10.624,27.355
		C34.259,92.097,32.653,92.08,31.093,92.163z M46.556,94.79c-0.496-0.201-0.987-0.374-1.478-0.55
		c14.744-4.569,25.264-2.096,30.292-0.17c-6.303,1.95-12.144,3.677-17.527,5.201C54.247,97.863,50.489,96.384,46.556,94.79z
		 M122.384,41.563l0.196-0.125c3.441-1.493,7.223-2.02,10.941-1.524l-8.671,3.6c-1.021-0.249-2.069-0.294-3.102-0.182
		c-0.274,0.024-0.544,0.062-0.809,0.11c-0.061,0.012-0.121,0.025-0.182,0.039c-0.411,0.084-0.81,0.195-1.193,0.336
		C120.283,42.825,121.257,42.045,122.384,41.563z M115.725,38.066c-0.005,0.046-0.005,0.091,0,0.137
		c0.585,1.106,0.854,2.351,0.777,3.6c-0.921-1.582-2.296-2.851-3.947-3.642l-4.251-8.295
		C111.481,31.869,114.048,34.705,115.725,38.066z M110.025,40.42c0.186,0.056,0.365,0.129,0.544,0.201
		c0.086,0.059,0.166,0.126,0.264,0.165c0.531,0.233,1.007,0.529,1.434,0.858c0.875,0.734,1.551,1.696,1.93,2.805
		c0.006,0.026,0.005,0.052,0.01,0.077l-15.307-4.656C102.588,39.025,106.438,39.215,110.025,40.42z M98.078,51.94
		c2.31-2.88,5.353-5.085,8.808-6.385l4.192,1.285L98.078,51.94z M103.245,89.381c-2.012-0.337-4.12-0.52-6.318-0.495
		c1.32-9.146,4.841-23.281,14.256-34.093C106.471,65.754,103.801,77.472,103.245,89.381z M127.232,63.292L120.479,51.1l0.012,0.005
		l4.051,1.701C126.356,56,127.286,59.62,127.232,63.292z M119.609,47.408c0.209-0.171,0.429-0.322,0.661-0.455
		c0.916-0.474,1.939-0.689,2.961-0.623c0.145,0.015,0.289,0.023,0.433,0.051c0.011,0.002,0.023,0.003,0.034,0.005
		c0.271,0.055,0.539,0.134,0.803,0.237c0.122,0.043,0.249,0.053,0.376,0.064c0.183,0.06,0.368,0.115,0.543,0.195
		c3.532,1.364,6.618,3.68,8.915,6.69L119.609,47.408z"/>
	<path style="fill:#FFFFFF;" d="M52.59,52.016c5.464-0.009,9.889-4.441,9.89-9.905v-0.015c-0.008-5.47-4.45-9.898-9.92-9.89
		c-5.47,0.008-9.898,4.45-9.89,9.92C42.678,47.597,47.119,52.025,52.59,52.016z M52.59,35.253v0.016
		c3.77,0.008,6.826,3.057,6.842,6.827v0.03c-0.009,3.787-3.085,6.849-6.872,6.841c-3.787-0.008-6.85-3.085-6.842-6.872
		C45.726,38.308,48.803,35.245,52.59,35.253z"/>
</g>
</svg>
