<?xml version="1.0" encoding="iso-8859-1"?>
<!-- Generator: Adobe Illustrator 23.0.2, SVG Export Plug-In . SVG Version: 6.00 Build 0)  -->
<svg version="1.1" id="Layer_1" xmlns="http://www.w3.org/2000/svg" xmlns:xlink="http://www.w3.org/1999/xlink" x="0px" y="0px"
	 width="140px" height="140px" viewBox="0 0 140 140" style="enable-background:new 0 0 140 140;" xml:space="preserve">
<g id="masks_1_" style="fill:#FFFFFF;" transform="translate(383.219 -348)">
	<path id="Path_18_1_" d="M-340.592,395.503c-0.13-0.13-4.275-2.721-8.033-1.425c-3.758,1.296-5.441,5.83-5.571,5.96
		c-0.22,0.576-0.003,1.226,0.518,1.555c1.769,1.046,3.775,1.626,5.83,1.684c0.751,0.008,1.497-0.124,2.2-0.389
		c3.757-1.3,5.441-5.83,5.571-5.96C-339.944,396.393-340.147,395.83-340.592,395.503z M-346.419,400.555
		c-1.625,0.335-3.316,0.107-4.794-0.648c0.715-1.513,1.961-2.711,3.5-3.368c1.625-0.335,3.316-0.107,4.794,0.648
		C-343.702,398.353-344.868,400.037-346.419,400.555z"/>
	<path id="Path_19_1_" d="M-318.438,387.988c-0.13-0.13-4.275-2.721-8.033-1.425c-3.758,1.296-5.441,5.83-5.571,5.96
		c-0.22,0.576-0.003,1.226,0.518,1.555c1.769,1.046,3.775,1.626,5.83,1.684c0.751,0.008,1.497-0.124,2.2-0.389
		c3.757-1.3,5.441-5.83,5.571-5.96C-317.665,389.024-317.92,388.38-318.438,387.988z M-324.265,393.04
		c-1.625,0.335-3.316,0.107-4.794-0.648c0.715-1.513,1.961-2.711,3.5-3.368c1.625-0.335,3.316-0.107,4.794,0.648
		C-321.48,391.185-322.726,392.383-324.265,393.04z"/>
	<path id="Path_20_1_" d="M-275.426,405.738c-6.186-3.345-12.963-5.457-19.955-6.219c-4.384-0.526-8.807-0.656-13.215-0.389
		c0.025-9.185-1.552-18.304-4.66-26.947c-0.148-0.451-0.562-0.761-1.036-0.777c-6.126-0.632-12.306-0.501-18.4,0.389
		c-6.999,0.864-13.746,3.157-19.822,6.737c-5.355,3-10.315,6.655-14.767,10.881c-0.376,0.318-0.528,0.828-0.389,1.3
		c0.13,0.259,10.105,37.053,44.308,45.993c0.245,0.106,0.511,0.15,0.777,0.13c0.954-0.001,1.857-0.429,2.462-1.166l0,0
		c0.518-0.648,1.036-1.425,1.555-2.073c1.093,11.104,5.417,21.644,12.437,30.316c0.553,0.731,1.416,1.162,2.332,1.166
		c0.308,0.021,0.617-0.023,0.907-0.13c32.907-9.587,42.883-46.9,43.013-47.288c0.139-0.472-0.013-0.982-0.389-1.3
		C-264.839,412.178-269.934,408.607-275.426,405.738z M-322.196,433.981c-0.13,0.13-0.259,0.259-0.518,0.13
		c-30.057-7.774-40.551-38.479-42.106-43.531c4.18-3.841,8.788-7.189,13.733-9.976c5.764-3.375,12.157-5.535,18.786-6.348
		c5.625-0.76,11.318-0.891,16.972-0.389C-313.515,378.92-303.669,410.143-322.196,433.981z M-303.669,462.354
		c-0.259,0-0.389,0-0.518-0.13c-7.385-8.939-11.4-19.822-12.178-32.13c4.914-8.615,7.586-18.327,7.773-28.243
		c4.322-0.265,8.658-0.135,12.956,0.389c6.641,0.612,13.082,2.597,18.915,5.83c4.995,2.683,9.687,5.897,13.992,9.587
		C-264.154,422.839-274.648,453.933-303.669,462.354z"/>
	<path id="Path_21_1_" d="M-302.374,423.749c2.13-0.076,4.195-0.749,5.96-1.943c0.469-0.368,0.672-0.98,0.518-1.555
		c-0.13-0.13-1.943-4.664-5.7-5.83c-3.757-1.166-7.773,1.425-8.033,1.555c-0.469,0.368-0.672,0.98-0.518,1.555
		c0.13,0.13,1.943,4.664,5.7,5.83C-303.8,423.665-303.087,423.799-302.374,423.749z M-307.168,417.657
		c1.166-0.518,3.109-1.3,4.794-0.777c1.539,0.657,2.785,1.855,3.5,3.368c-1.166,0.518-3.109,1.3-4.794,0.777
		C-305.207,420.368-306.453,419.17-307.168,417.657z"/>
	<path id="Path_22_1_" d="M-287.215,423.098c-0.469,0.368-0.672,0.98-0.518,1.555c0.13,0.13,1.943,4.664,5.7,5.83
		c0.669,0.213,1.372,0.301,2.073,0.259c2.13-0.076,4.195-0.749,5.96-1.943c0.467-0.367,0.671-0.977,0.518-1.551
		c-0.13-0.13-1.943-4.664-5.7-5.83C-283.069,420.248-287.086,422.969-287.215,423.098z M-276.462,427.248
		c-1.166,0.518-3.109,1.3-4.794,0.777c-1.539-0.657-2.785-1.855-3.5-3.368c1.166-0.518,3.109-1.3,4.794-0.777
		C-278.423,424.537-277.177,425.735-276.462,427.248z"/>
	<path id="Path_23_1_" d="M-331.785,407.033c-2.599,0.862-4.745,2.728-5.96,5.182c-1.201,2.464-1.388,5.301-0.518,7.9
		c0.148,0.525,0.62,0.893,1.166,0.907c0.143,0.018,0.286-0.03,0.389-0.13c0.676-0.242,1.027-0.987,0.785-1.663
		c-0.003-0.007-0.005-0.014-0.008-0.021c-0.654-1.961-0.514-4.1,0.389-5.96c0.912-1.865,2.552-3.271,4.534-3.887
		c4.004-1.397,8.382,0.717,9.779,4.721c0.023,0.067,0.046,0.135,0.067,0.202c0.241,0.683,0.991,1.042,1.674,0.801
		s1.042-0.991,0.801-1.674c-0.004-0.011-0.008-0.023-0.012-0.034C-320.577,408.026-326.421,405.193-331.785,407.033z"/>
	<path id="Path_24_1_" d="M-286.179,437.608c-0.689-0.229-1.434,0.145-1.662,0.834c-0.008,0.024-0.015,0.048-0.022,0.073
		c-1.168,4.139-5.47,6.548-9.609,5.38c-4.139-1.168-6.548-5.47-5.38-9.609c0.029-0.103,0.061-0.206,0.094-0.308
		c0.214-0.718-0.195-1.474-0.913-1.688c-0.718-0.214-1.473,0.195-1.688,0.912c-1.659,5.471,1.407,11.257,6.866,12.956
		c1.012,0.298,2.056,0.472,3.109,0.518c4.541-0.016,8.561-2.94,9.976-7.255c0.289-0.71-0.052-1.521-0.763-1.81
		C-286.173,437.611-286.176,437.609-286.179,437.608z"/>
</g>
</svg>
