<?xml version="1.0" encoding="iso-8859-1"?>
<!-- Generator: Adobe Illustrator 23.0.2, SVG Export Plug-In . SVG Version: 6.00 Build 0)  -->
<svg version="1.1" id="Layer_1" xmlns="http://www.w3.org/2000/svg" xmlns:xlink="http://www.w3.org/1999/xlink" x="0px" y="0px"
	 width="173.247px" height="135.371px" viewBox="0 0 173.247 135.371" style="enable-background:new 0 0 173.247 135.371;"
	 xml:space="preserve">
<path id="sea" style="fill:#FFFFFF;" d="M142.745,94.758c-0.545-0.6-1.334-0.919-2.143-0.866
	c-7.005,0.454-14.272,7.286-18.488,11.991c-9.5-5.76-24.659-13.509-37.495-13.509c-13.659,0-29.6,8.92-36.077,14.948
	c-3.617,3.568-3.658,9.393-0.09,13.01c0.03,0.03,0.059,0.06,0.09,0.09c6.475,6.029,22.418,14.949,36.077,14.949
	c12.834,0,27.995-7.751,37.495-13.51c4.214,4.708,11.482,11.537,18.488,11.993c0.059,0,0.115,0,0.172,0
	c1.469,0.002,2.661-1.187,2.663-2.655c0-0.144-0.011-0.288-0.035-0.431c-0.02-0.126-2.042-12.691-2.062-16.885
	c0.02-4.218,2.042-16.784,2.062-16.912C143.531,96.172,143.289,95.358,142.745,94.758z M84.619,130.044
	c-5.007-0.159-9.946-1.205-14.589-3.087c1.877-3.093,2.756-8.1,2.756-13.086s-0.878-9.993-2.756-13.086
	c4.643-1.882,9.582-2.928,14.589-3.087c11.3,0,25.076,6.94,34.067,12.332c0.806,0.481,1.561,0.946,2.284,1.4
	c0.47,0.293,0.937,0.586,1.37,0.862c0.873,0.817,0.917,2.188,0.1,3.06c-0.032,0.034-0.065,0.068-0.1,0.1
	c-0.433,0.277-0.9,0.57-1.37,0.864c-0.722,0.451-1.48,0.917-2.284,1.4C109.693,123.105,95.924,130.044,84.619,130.044z
	 M52.17,116.524c-1.393-1.494-1.393-3.811,0-5.305c3.854-3.338,8.159-6.116,12.788-8.253c0.05,0.009,0.092,0.037,0.144,0.044
	c0.853,0.784,2.36,4.635,2.36,10.861s-1.506,10.075-2.358,10.861c-0.051,0.005-0.094,0.035-0.146,0.044
	C60.329,122.639,56.025,119.861,52.17,116.524z M126.546,108.953c3.032-3.3,7.122-7.087,10.984-8.815
	c-0.743,4.553-1.248,9.141-1.514,13.746c0.267,4.596,0.772,9.176,1.514,13.72c-3.856-1.732-7.948-5.522-10.982-8.815
	c2.401-2.839,2.401-6.997,0-9.836H126.546z M62.581,111.476c0,1.512-1.226,2.738-2.738,2.738s-2.738-1.226-2.738-2.738
	c0-1.512,1.226-2.738,2.738-2.738h0C61.356,108.738,62.581,109.964,62.581,111.476z M81.006,65.017
	c1.176-0.477,2.319-0.994,3.428-1.537c3.825-1.812,7.381-4.147,10.565-6.936c3.002-2.945,3.048-7.766,0.103-10.767
	c-0.034-0.035-0.068-0.069-0.103-0.103c-3.184-2.789-6.74-5.124-10.565-6.938c-1.107-0.541-2.25-1.058-3.426-1.535
	c-4.365-1.871-9.045-2.899-13.792-3.031c-9.674,0-21.018,5.689-28.307,10.061c-3.311-3.618-8.758-8.562-14.085-8.909
	c-0.808-0.048-1.594,0.27-2.142,0.866c-0.545,0.6-0.787,1.416-0.658,2.216c0.428,2.651,1.544,10.105,1.554,12.694
	c-0.011,2.61-1.127,10.064-1.554,12.717c-0.234,1.451,0.753,2.818,2.204,3.052c0.14,0.023,0.282,0.034,0.424,0.034
	c0.057,0,0.115,0,0.172-0.005c5.327-0.348,10.774-5.291,14.085-8.908c7.289,4.371,18.631,10.056,28.307,10.056
	C71.963,67.913,76.642,66.886,81.006,65.017z M39.849,52.317c-0.3-0.186-0.6-0.374-0.877-0.552c-0.297-0.387-0.297-0.924,0-1.311
	c0.279-0.177,0.58-0.366,0.878-0.554c0.743-0.465,1.549-0.956,2.408-1.466c6.752-4,16.75-8.941,24.959-8.941
	c3.336,0.092,6.634,0.734,9.761,1.9c-1.153,3.106-1.708,6.403-1.634,9.715c-0.073,3.313,0.483,6.61,1.637,9.716
	c-3.127,1.166-6.425,1.808-9.761,1.9c-8.21,0-18.209-4.942-24.959-8.941C41.398,53.275,40.592,52.784,39.849,52.317z M27.929,41.852
	c2.477,1.546,4.729,3.428,6.689,5.592c-1.59,2.187-1.59,5.148,0,7.335c-1.961,2.164-4.213,4.045-6.691,5.589
	c0.487-3.07,0.812-6.164,0.974-9.268C28.739,48.002,28.415,44.916,27.929,41.852z M91.371,49.569c0.783,0.877,0.783,2.202,0,3.079
	c-2.864,2.481-6.061,4.548-9.5,6.139c-0.863-2.465-1.269-5.067-1.2-7.678c-0.069-2.611,0.337-5.213,1.2-7.678
	C85.31,45.022,88.508,47.088,91.371,49.569z M83.917,49.292c0.001-1.145,0.931-2.073,2.076-2.072
	c1.145,0.001,2.073,0.931,2.072,2.076c-0.001,1.145-0.929,2.072-2.074,2.072C84.845,51.368,83.916,50.439,83.917,49.292
	C83.916,49.293,83.916,49.292,83.917,49.292L83.917,49.292z M118.278,48.092c5.063,0,9.167-4.104,9.167-9.167
	s-4.104-9.167-9.167-9.167s-9.167,4.104-9.167,9.167c0.003,5.063,4.107,9.167,9.17,9.171L118.278,48.092z M118.278,35.08
	c2.123-0.001,3.844,1.72,3.845,3.843c0.001,2.123-1.72,3.844-3.843,3.845c-2.123,0.001-3.844-1.72-3.845-3.843
	c0.004-2.121,1.725-3.839,3.846-3.841L118.278,35.08z M115.256,75.013c3.395,0.001,6.148-2.75,6.149-6.145s-2.75-6.148-6.145-6.149
	c-3.395-0.001-6.148,2.75-6.149,6.145c0,0.001,0,0.001,0,0.002c0.001,3.395,2.75,6.147,6.145,6.151L115.256,75.013z M115.256,68.043
	c0.455-0.001,0.823,0.367,0.824,0.822c0.001,0.455-0.367,0.823-0.822,0.824c-0.455,0.001-0.823-0.367-0.824-0.822
	c0,0,0-0.001,0-0.001c0.002-0.453,0.369-0.82,0.822-0.822L115.256,68.043z M140.126,56.009c-5.247,0-9.5,4.253-9.5,9.5
	s4.253,9.5,9.5,9.5s9.5-4.253,9.5-9.5c-0.009-5.242-4.258-9.489-9.5-9.496L140.126,56.009z M140.126,69.69
	c-2.308,0-4.179-1.871-4.179-4.179c0-2.308,1.871-4.179,4.179-4.179s4.179,1.871,4.179,4.179c0.001,2.309-1.87,4.181-4.179,4.183
	L140.126,69.69z M173.247,13.303c0.001,1.47-1.19,2.661-2.66,2.662c-0.001,0-0.001,0-0.002,0c-3.801,0.089-7.558-0.829-10.89-2.662
	c-1.649-0.949-3.226-2.019-4.718-3.2c-3.371-2.564-6.285-4.78-12.385-4.78s-9.01,2.214-12.382,4.78
	c-1.491,1.182-3.067,2.251-4.716,3.2c-6.826,3.549-14.953,3.549-21.779,0c-1.65-0.949-3.227-2.018-4.718-3.2
	c-3.373-2.564-6.285-4.78-12.387-4.78s-9.016,2.216-12.387,4.78c-1.492,1.181-3.069,2.25-4.718,3.2
	c-3.333,1.833-7.091,2.751-10.893,2.662c-3.802,0.089-7.56-0.829-10.893-2.662c-1.65-0.949-3.228-2.019-4.72-3.2
	c-3.371-2.564-6.285-4.78-12.387-4.78s-9.018,2.216-12.391,4.78c-1.492,1.181-3.07,2.251-4.72,3.2
	c-3.331,1.834-7.089,2.754-10.891,2.666c-1.47-0.028-2.638-1.243-2.61-2.713c0.028-1.43,1.18-2.582,2.61-2.61
	c6.1,0,9.016-2.216,12.389-4.78C18.615,3.116,22.714,0,30.612,0s11.995,3.116,15.609,5.866c3.375,2.564,6.287,4.78,12.391,4.78
	c6.104,0,9.016-2.216,12.387-4.78C74.615,3.116,78.712,0,86.61,0s11.993,3.116,15.609,5.866c3.371,2.564,6.285,4.78,12.385,4.78
	s9.012-2.216,12.384-4.78C130.602,3.116,134.7,0,142.588,0s11.995,3.116,15.609,5.866c3.371,2.564,6.283,4.78,12.384,4.78
	C172.051,10.643,173.245,11.832,173.247,13.303c0,0.001,0,0.002,0,0.004L173.247,13.303z"/>
</svg>
