<?xml version="1.0" encoding="iso-8859-1"?>
<!-- Generator: Adobe Illustrator 23.0.2, SVG Export Plug-In . SVG Version: 6.00 Build 0)  -->
<svg version="1.1" id="Layer_1" xmlns="http://www.w3.org/2000/svg" xmlns:xlink="http://www.w3.org/1999/xlink" x="0px" y="0px"
	 width="140px" height="140px" viewBox="0 0 140 140" style="enable-background:new 0 0 140 140;" xml:space="preserve">
<g id="spaceship2" style="fill:#FFFFFF;" transform="translate(-2.148 -8.344)">
	<path id="Path_25" d="M119.342,117.755c0-0.033,0.01-0.064,0.01-0.1v-17.333c0-0.044-0.01-0.084-0.013-0.127
		c0-0.07-0.01-0.14-0.021-0.209c-0.011-0.064-0.026-0.127-0.045-0.189c-0.017-0.062-0.033-0.122-0.056-0.182
		s-0.053-0.122-0.082-0.182s-0.057-0.112-0.09-0.166s-0.076-0.11-0.117-0.163s-0.075-0.1-0.117-0.143
		c-0.051-0.053-0.105-0.103-0.162-0.15c-0.03-0.026-0.056-0.058-0.088-0.082l-16.717-12.69C101.418,65.359,87.976,48.7,71.5,48.7
		S41.582,65.36,41.156,86.039l-16.717,12.69c-0.034,0.025-0.06,0.058-0.091,0.085c-0.054,0.047-0.107,0.094-0.157,0.146
		c-0.05,0.052-0.082,0.1-0.121,0.146s-0.079,0.1-0.114,0.159s-0.063,0.111-0.092,0.169c-0.029,0.058-0.057,0.117-0.081,0.179
		s-0.04,0.121-0.057,0.184s-0.033,0.124-0.044,0.188c-0.011,0.069-0.018,0.139-0.021,0.209c0,0.043-0.013,0.084-0.013,0.127v17.334
		c0,0.034,0.008,0.065,0.01,0.1c0.003,0.07,0.01,0.139,0.021,0.208c0.011,0.067,0.025,0.134,0.043,0.2
		c0.008,0.032,0.01,0.065,0.021,0.1s0.019,0.031,0.025,0.049c0.061,0.178,0.146,0.346,0.254,0.5c0.019,0.026,0.041,0.048,0.06,0.073
		c0.104,0.132,0.224,0.251,0.357,0.353c0.021,0.017,0.04,0.035,0.061,0.051c0.148,0.103,0.309,0.185,0.48,0.243
		c0.039,0.014,0.077,0.025,0.117,0.036c0.173,0.053,0.352,0.081,0.533,0.085h0.018h0.017c0.179-0.003,0.357-0.031,0.529-0.083
		c0.021-0.006,0.042,0,0.063-0.01l14.879-4.75v2.846c0,1.105,0.895,2,2,2h56.729c1.105,0,2-0.895,2-2v-2.846l14.879,4.751
		c0.021,0.007,0.042,0,0.063,0.01c0.171,0.052,0.348,0.079,0.527,0.083h0.018h0.017c0.181-0.003,0.362-0.032,0.535-0.085
		c0.039-0.011,0.077-0.022,0.116-0.036c0.17-0.059,0.332-0.14,0.48-0.243c0.021-0.016,0.039-0.034,0.061-0.05
		c0.133-0.103,0.253-0.222,0.357-0.354c0.02-0.025,0.041-0.047,0.06-0.073c0.108-0.154,0.194-0.322,0.255-0.5
		c0.006-0.018,0.019-0.031,0.024-0.049s0.012-0.065,0.021-0.1c0.018-0.066,0.032-0.133,0.043-0.2
		C119.332,117.895,119.339,117.825,119.342,117.755z M71.5,52.7c14.537,0,26.364,15.409,26.364,34.348v6.2H45.136v-6.2
		C45.136,68.107,56.963,52.7,71.5,52.7z M27.648,114.918v-13.6l13.487-10.242v19.535L27.648,114.918z M97.864,115.656H45.136v-18.41
		h52.729L97.864,115.656L97.864,115.656z M101.864,95.246v-4.17l13.487,10.238v13.6l-13.487-4.303L101.864,95.246z"/>
	<path id="Path_26" d="M71.5,86.01c6.259,0,11.333-5.074,11.333-11.333c0-6.259-5.074-11.333-11.333-11.333
		c-6.259,0-11.333,5.074-11.333,11.333C60.174,80.933,65.244,86.003,71.5,86.01z M71.5,67.344c4.05,0,7.333,3.283,7.333,7.333
		S75.55,82.01,71.5,82.01s-7.333-3.283-7.333-7.333l0,0C64.172,70.629,67.452,67.349,71.5,67.344z"/>
	<path id="Path_27" d="M102.156,47.688h3.011V50.7c0,1.105,0.895,2,2,2s2-0.895,2-2v-3.012h3.011c1.105,0,2-0.895,2-2
		c0-1.105-0.895-2-2-2h-3.011v-3.011c0-1.105-0.895-2-2-2s-2,0.895-2,2v3.011h-3.011c-1.105,0-2,0.895-2,2
		C100.156,46.793,101.051,47.688,102.156,47.688z"/>
	<path id="Path_28" d="M114.178,65.344c0-1.105-0.895-2-2-2s-2,0.895-2,2v3.011h-3.011c-1.105,0-2,0.895-2,2s0.895,2,2,2h3.011
		v3.011c0,1.105,0.895,2,2,2s2-0.895,2-2v-3.011h3.011c1.105,0,2-0.895,2-2s-0.895-2-2-2h-3.011V65.344z"/>
	<path id="Path_29" d="M43.136,45.355h3.011v3.011c0,1.105,0.895,2,2,2c1.105,0,2-0.895,2-2v-3.011h3.011c1.105,0,2-0.895,2-2
		c0-1.105-0.895-2-2-2h-3.011v-3.011c0-1.105-0.895-2-2-2c-1.105,0-2,0.895-2,2v3.011h-3.011c-1.105,0-2,0.895-2,2
		C41.136,44.46,42.031,45.355,43.136,45.355z"/>
	<path id="Path_30" d="M25.648,64.021h3.011v3.011c0,1.105,0.895,2,2,2c1.105,0,2-0.895,2-2v-3.011h3.011c1.105,0,2-0.895,2-2
		s-0.895-2-2-2h-3.011V57.01c0-1.105-0.895-2-2-2c-1.105,0-2,0.895-2,2v3.011h-3.011c-1.105,0-2,0.895-2,2
		S24.543,64.021,25.648,64.021z"/>
</g>
</svg>
