<?xml version="1.0" encoding="iso-8859-1"?>
<!-- Generator: Adobe Illustrator 23.0.2, SVG Export Plug-In . SVG Version: 6.00 Build 0)  -->
<svg version="1.1" id="Layer_1" xmlns="http://www.w3.org/2000/svg" xmlns:xlink="http://www.w3.org/1999/xlink" x="0px" y="0px"
	 width="140px" height="140px" viewBox="0 0 140 140" style="enable-background:new 0 0 140 140;" xml:space="preserve">
<g id="sticks" transform="translate(-1.999 -2)">
	
		<rect id="Rectangle_13" x="75.688" y="55.661" transform="matrix(0.7071 -0.7071 0.7071 0.7071 -18.9871 74.1615)" style="fill:#FFFFFF;" width="8.678" height="8.678"/>
	
		<rect id="Rectangle_14" x="59.63" y="71.719" transform="matrix(0.7071 -0.7071 0.7071 0.7071 -35.0451 67.5101)" style="fill:#FFFFFF;" width="8.678" height="8.678"/>
	
		<rect id="Rectangle_15" x="79.92" y="39.015" transform="matrix(0.7071 -0.7071 0.7071 0.7071 -1.786 81.2873)" style="fill:#FFFFFF;" width="34.62" height="7.57"/>
	
		<rect id="Rectangle_16" x="67.66" y="52.335" transform="matrix(0.7071 -0.7071 0.7071 0.7071 -27.0163 70.8364)" style="fill:#FFFFFF;" width="8.678" height="31.389"/>
	
		<rect id="Rectangle_17" x="42.985" y="25.489" transform="matrix(0.7071 -0.7071 0.7071 0.7071 -16.5649 45.6065)" style="fill:#FFFFFF;" width="7.57" height="34.62"/>
	
		<rect id="Rectangle_18" x="93.444" y="75.949" transform="matrix(0.7071 -0.7071 0.7071 0.7071 -37.4661 96.0665)" style="fill:#FFFFFF;" width="7.57" height="34.62"/>
	
		<rect id="Rectangle_19" x="29.459" y="89.475" transform="matrix(0.7071 -0.7071 0.7071 0.7071 -52.2463 60.3854)" style="fill:#FFFFFF;" width="34.62" height="7.57"/>
</g>
</svg>
