<?xml version="1.0" encoding="iso-8859-1"?>
<!-- Generator: Adobe Illustrator 23.0.2, SVG Export Plug-In . SVG Version: 6.00 Build 0)  -->
<svg version="1.1" id="Layer_1" xmlns="http://www.w3.org/2000/svg" xmlns:xlink="http://www.w3.org/1999/xlink" x="0px" y="0px"
	 width="140px" height="140px" viewBox="0 0 140 140" style="enable-background:new 0 0 140 140;" xml:space="preserve">
<g id="treasure" transform="translate(145.059 93.961)">
	<path id="Path_69" style="fill:#FFFFFF;" d="M-107.357-48.577h62.555c-0.166-1.568-0.76-3.06-1.716-4.314
		c-1.378-1.609-3.27-2.693-5.356-3.067h-48.359c-2.086,0.374-3.978,1.458-5.356,3.067C-106.54-51.629-107.149-50.143-107.357-48.577
		z M-49.95-27.257c0.315,1.284,0.982,2.454,1.925,3.38c0.953,0.907,2.114,1.567,3.38,1.924v-5.3h-5.3L-49.95-27.257z M-81.618-3.285
		c-1-0.012-1.808-0.82-1.82-1.82c-0.01-1.018,0.802-1.853,1.82-1.872h11.124c1.018,0.018,1.831,0.854,1.821,1.872
		c-0.012,1-0.821,1.808-1.821,1.82H-81.618z M-76.053-24.501c1.518,0.01,2.746,1.239,2.755,2.757
		c0.013,1.535-1.22,2.792-2.755,2.808c-1.535-0.016-2.768-1.273-2.755-2.808C-78.799-23.262-77.571-24.49-76.053-24.501z
		 M-66.797-27.256v5.512c0.007,2.467-0.987,4.831-2.755,6.551c-1.72,1.73-4.06,2.702-6.5,2.7c-2.453-0.008-4.805-0.977-6.551-2.7
		c-1.732-1.74-2.703-4.096-2.7-6.551v-5.512h-13.053c-0.407,2.264-1.495,4.351-3.119,5.98c-1.626,1.619-3.716,2.691-5.98,3.068
		v11.439c2.271,0.354,4.368,1.43,5.98,3.068c1.624,1.629,2.712,3.716,3.119,5.98h44.617c0.407-2.264,1.495-4.351,3.119-5.98
		c1.605-1.648,3.705-2.725,5.98-3.068v-11.439c-2.267-0.365-4.361-1.439-5.98-3.068c-1.624-1.629-2.712-3.716-3.119-5.98
		L-66.797-27.256z M-81.617-27.256v5.512c-0.002,1.488,0.598,2.913,1.665,3.951c1.037,1.03,2.438,1.61,3.9,1.612
		c1.462-0.002,2.863-0.582,3.9-1.612c1.067-1.037,1.667-2.463,1.664-3.951v-5.512H-81.617z M-40.954-5.104v9.256
		c-0.018,1.018-0.854,1.831-1.872,1.82h-66.455c-1.018,0.011-1.854-0.802-1.872-1.82v-33.28c-0.01-0.496,0.199-0.972,0.572-1.3
		c1.826-1.785,3.891-3.307,6.136-4.524l-6.4-10.713c-0.205-0.308-0.314-0.669-0.313-1.039c-0.096-3.051,0.857-6.043,2.7-8.476
		c1.908-2.297,4.555-3.86,7.488-4.42c0.17-0.042,0.344-0.059,0.519-0.051h48.775c0.124-0.008,0.248,0.009,0.365,0.051
		c2.989,0.526,5.696,2.092,7.643,4.42c1.843,2.433,2.796,5.425,2.7,8.476c0.008,0.355-0.102,0.703-0.313,0.988l-6.433,10.711
		c2.253,1.23,4.334,2.751,6.189,4.524c0.365,0.355,0.572,0.843,0.572,1.352v24.024L-40.954-5.104z M-101.17-36.617
		c1.648-0.726,3.331-1.369,5.044-1.924c6.503-2.008,13.267-3.042,20.072-3.068c6.806,0.026,13.57,1.06,20.073,3.068
		c1.716,0.572,3.38,1.2,4.939,1.872l4.94-8.216h-59.956L-101.17-36.617z M-102.158,2.283c-0.314-1.284-0.981-2.454-1.924-3.38
		c-0.953-0.907-2.114-1.567-3.38-1.924v5.3L-102.158,2.283z M-100.078-30.944h51.948c-2.809-1.742-5.835-3.106-9-4.056
		c-6.125-1.921-12.509-2.885-18.928-2.859c-6.419-0.027-12.803,0.938-18.928,2.859c-3.165,0.95-6.191,2.314-9,4.056h3.9H-100.078z
		 M-104.078-23.872c0.943-0.926,1.61-2.096,1.924-3.38h-5.3v5.3c1.264-0.358,2.422-1.019,3.373-1.925L-104.078-23.872z
		 M-48.025-1.101c-0.943,0.926-1.61,2.096-1.925,3.38h5.3v-5.3C-45.914-2.664-47.073-2.005-48.025-1.101z"/>
</g>
</svg>
